# Blender 4.3.2
# www.blender.org
mtllib Lamborghini_Aventador_rear_left_wheel.mtl
o Lamborghini_Aventador:Wheel_RR
v 0.969208 0.628070 -1.768845
v 0.969208 0.668540 -1.689418
v 0.969208 0.397564 -1.601373
v 0.969208 0.565036 -1.831879
v 0.969208 0.485609 -1.872348
v 0.969208 0.397564 -1.886294
v 0.969208 0.309518 -1.872348
v 0.969208 0.230092 -1.831878
v 0.969208 0.167058 -1.768845
v 0.969208 0.126588 -1.689418
v 0.969208 0.112643 -1.601373
v 0.969208 0.126588 -1.513327
v 0.969208 0.167058 -1.433900
v 0.969208 0.230092 -1.370867
v 0.969208 0.309518 -1.330397
v 0.969208 0.397564 -1.316452
v 0.969208 0.485609 -1.330397
v 0.969208 0.565036 -1.370867
v 0.969208 0.628070 -1.433900
v 0.969208 0.668539 -1.513327
v 0.969208 0.682484 -1.601373
v 1.107472 0.662536 -1.793886
v 1.107472 0.709057 -1.702583
v 1.107472 0.690441 -1.696535
v 1.107472 0.646700 -1.782381
v 1.107472 0.590077 -1.866345
v 1.107472 0.578572 -1.850510
v 1.107472 0.498774 -1.912866
v 1.107472 0.492725 -1.894250
v 1.107472 0.397564 -1.928897
v 1.107472 0.397564 -1.909322
v 1.107472 0.296354 -1.912866
v 1.107472 0.302402 -1.894250
v 1.107472 0.205050 -1.866345
v 1.107472 0.216556 -1.850509
v 1.107472 0.132592 -1.793886
v 1.107472 0.148428 -1.782381
v 1.107472 0.086070 -1.702583
v 1.107472 0.104687 -1.696535
v 1.107472 0.070040 -1.601373
v 1.107472 0.089615 -1.601373
v 1.107472 0.086070 -1.500162
v 1.107472 0.104687 -1.506211
v 1.107472 0.132592 -1.408859
v 1.107472 0.148428 -1.420365
v 1.107472 0.205050 -1.336401
v 1.107472 0.216556 -1.352237
v 1.107472 0.296354 -1.289879
v 1.107472 0.302402 -1.308496
v 1.107472 0.397564 -1.273849
v 1.107472 0.397564 -1.293423
v 1.107472 0.498774 -1.289880
v 1.107472 0.492725 -1.308496
v 1.107472 0.590077 -1.336401
v 1.107472 0.578572 -1.352237
v 1.107472 0.662536 -1.408859
v 1.107472 0.646700 -1.420365
v 1.107472 0.709057 -1.500162
v 1.107472 0.690441 -1.506211
v 1.107472 0.725087 -1.601373
v 1.107472 0.705513 -1.601373
v 1.090166 0.668540 -1.689418
v 1.090166 0.628070 -1.768845
v 1.090166 0.565036 -1.831879
v 1.090166 0.485609 -1.872348
v 1.090166 0.397564 -1.886294
v 1.090166 0.309518 -1.872348
v 1.090166 0.230092 -1.831878
v 1.090166 0.167058 -1.768845
v 1.090166 0.126588 -1.689418
v 1.090166 0.112643 -1.601373
v 1.090166 0.126588 -1.513327
v 1.090166 0.167058 -1.433900
v 1.090166 0.230092 -1.370867
v 1.090166 0.309518 -1.330397
v 1.090166 0.397564 -1.316452
v 1.090166 0.485609 -1.330397
v 1.090166 0.565036 -1.370867
v 1.090166 0.628070 -1.433900
v 1.090166 0.668539 -1.513327
v 1.090166 0.682484 -1.601373
v 1.085068 0.775126 -1.724051
v 1.106125 0.766727 -1.721321
v 1.106125 0.711593 -1.829528
v 1.085068 0.718737 -1.834719
v 1.114848 0.746451 -1.714733
v 1.114848 0.694345 -1.816997
v 1.106125 0.785725 -1.601373
v 1.114848 0.764405 -1.601373
v 1.085068 0.794556 -1.601373
v 1.106125 0.625719 -1.915402
v 1.085068 0.630910 -1.922547
v 1.114848 0.613188 -1.898154
v 1.106125 0.517512 -1.970536
v 1.085068 0.520241 -1.978935
v 1.114848 0.510924 -1.950260
v 1.106125 0.397564 -1.989534
v 1.085068 0.397564 -1.998366
v 1.114848 0.397564 -1.968214
v 1.106125 0.277615 -1.970536
v 1.085068 0.274886 -1.978935
v 1.114848 0.284204 -1.950260
v 1.106125 0.169408 -1.915402
v 1.085068 0.164218 -1.922547
v 1.114848 0.181940 -1.898154
v 1.106125 0.083535 -1.829528
v 1.085068 0.076390 -1.834719
v 1.114848 0.100783 -1.816997
v 1.106125 0.028401 -1.721321
v 1.085068 0.020002 -1.724051
v 1.114848 0.048677 -1.714733
v 1.106125 0.009403 -1.601373
v 1.085068 0.000572 -1.601373
v 1.114848 0.030723 -1.601373
v 1.106125 0.028401 -1.481425
v 1.085068 0.020002 -1.478696
v 1.114848 0.048677 -1.488013
v 1.106125 0.083535 -1.373217
v 1.085068 0.076390 -1.368027
v 1.114848 0.100783 -1.385749
v 1.106125 0.169408 -1.287344
v 1.085068 0.164218 -1.280200
v 1.114848 0.181940 -1.304592
v 1.106125 0.277615 -1.232209
v 1.085068 0.274887 -1.223811
v 1.114848 0.284204 -1.252486
v 1.106125 0.397564 -1.213211
v 1.085068 0.397564 -1.204380
v 1.114848 0.397564 -1.234531
v 1.106125 0.517512 -1.232210
v 1.085068 0.520241 -1.223811
v 1.114848 0.510924 -1.252486
v 1.106125 0.625719 -1.287344
v 1.085068 0.630910 -1.280200
v 1.114848 0.613188 -1.304592
v 1.106125 0.711593 -1.373217
v 1.085068 0.718737 -1.368027
v 1.114848 0.694345 -1.385749
v 1.106125 0.766727 -1.481425
v 1.085068 0.775126 -1.478696
v 1.114848 0.746450 -1.488013
v 0.794242 0.775126 -1.724051
v 0.773185 0.766727 -1.721321
v 0.773185 0.785725 -1.601373
v 0.794242 0.794556 -1.601373
v 0.764462 0.746451 -1.714733
v 0.764462 0.764405 -1.601373
v 0.773185 0.711593 -1.829528
v 0.764462 0.694345 -1.816997
v 0.794242 0.718737 -1.834719
v 0.773185 0.625719 -1.915402
v 0.764462 0.613188 -1.898154
v 0.794242 0.630910 -1.922547
v 0.773185 0.517512 -1.970536
v 0.764462 0.510924 -1.950260
v 0.794242 0.520241 -1.978935
v 0.773185 0.397564 -1.989534
v 0.764462 0.397564 -1.968214
v 0.794242 0.397564 -1.998366
v 0.773185 0.277615 -1.970536
v 0.764462 0.284204 -1.950260
v 0.794242 0.274886 -1.978935
v 0.773185 0.169408 -1.915402
v 0.764462 0.181940 -1.898154
v 0.794242 0.164218 -1.922547
v 0.773185 0.083535 -1.829528
v 0.764462 0.100783 -1.816997
v 0.794242 0.076390 -1.834719
v 0.773185 0.028401 -1.721321
v 0.764462 0.048677 -1.714733
v 0.794242 0.020002 -1.724051
v 0.773185 0.009403 -1.601373
v 0.764462 0.030723 -1.601373
v 0.794242 0.000572 -1.601373
v 0.773185 0.028401 -1.481425
v 0.764462 0.048677 -1.488013
v 0.794242 0.020002 -1.478696
v 0.773185 0.083535 -1.373218
v 0.764462 0.100783 -1.385749
v 0.794242 0.076390 -1.368027
v 0.773185 0.169408 -1.287344
v 0.764462 0.181940 -1.304592
v 0.794242 0.164218 -1.280200
v 0.773185 0.277615 -1.232210
v 0.764462 0.284204 -1.252486
v 0.794242 0.274887 -1.223811
v 0.773185 0.397564 -1.213211
v 0.764462 0.397564 -1.234531
v 0.794242 0.397564 -1.204380
v 0.773185 0.517512 -1.232210
v 0.764462 0.510924 -1.252486
v 0.794242 0.520241 -1.223811
v 0.773185 0.625719 -1.287344
v 0.764462 0.613188 -1.304592
v 0.794242 0.630910 -1.280200
v 0.773185 0.711593 -1.373218
v 0.764462 0.694345 -1.385749
v 0.794242 0.718737 -1.368027
v 0.773185 0.766727 -1.481425
v 0.764462 0.746450 -1.488013
v 0.794242 0.775126 -1.478696
v 0.764462 0.397564 -1.601373
v 1.061835 0.439287 -1.625462
v 1.061835 0.421653 -1.643096
v 1.038130 0.424286 -1.647657
v 1.038130 0.443848 -1.628095
v 1.061835 0.397564 -1.649551
v 1.038130 0.397564 -1.654817
v 1.061835 0.373475 -1.643096
v 1.038130 0.370842 -1.647657
v 1.061835 0.355841 -1.625462
v 1.038130 0.351280 -1.628095
v 1.061835 0.349386 -1.601373
v 1.038130 0.344119 -1.601373
v 1.061835 0.355841 -1.577284
v 1.038130 0.351280 -1.574651
v 1.061835 0.373475 -1.559650
v 1.038130 0.370842 -1.555089
v 1.061835 0.397564 -1.553196
v 1.038130 0.397564 -1.547929
v 1.061835 0.421653 -1.559650
v 1.038130 0.424286 -1.555089
v 1.061835 0.439287 -1.577284
v 1.038130 0.443848 -1.574651
v 1.061835 0.445741 -1.601373
v 1.038130 0.451008 -1.601373
v 1.061835 0.397564 -1.601373
v 1.041535 0.459700 -1.646517
v 1.041535 0.470609 -1.625107
v 1.041535 0.397564 -1.601373
v 1.041535 0.442708 -1.663509
v 1.041535 0.421298 -1.674418
v 1.041535 0.397564 -1.678177
v 1.041535 0.373830 -1.674418
v 1.041535 0.352419 -1.663509
v 1.041535 0.335428 -1.646517
v 1.041535 0.324519 -1.625107
v 1.041535 0.320760 -1.601373
v 1.041535 0.324519 -1.577639
v 1.041535 0.335428 -1.556229
v 1.041535 0.352420 -1.539238
v 1.041535 0.373830 -1.528328
v 1.041535 0.397564 -1.524569
v 1.041535 0.421298 -1.528328
v 1.041535 0.442708 -1.539238
v 1.041535 0.459700 -1.556229
v 1.041535 0.470609 -1.577639
v 1.041535 0.474368 -1.601373
v 1.094306 0.581616 -1.695153
v 1.094306 0.581207 -1.681459
v 1.094306 0.570298 -1.702870
v 1.094306 0.491343 -1.785426
v 1.094306 0.499061 -1.774107
v 1.094306 0.477650 -1.785017
v 1.094306 0.365250 -1.805397
v 1.094306 0.378146 -1.800776
v 1.094306 0.354413 -1.797017
v 1.094306 0.247657 -1.734289
v 1.094306 0.264648 -1.751280
v 1.094306 0.198161 -1.620791
v 1.094306 0.201920 -1.644525
v 1.094306 0.224830 -1.499876
v 1.094306 0.213921 -1.521287
v 1.094306 0.317477 -1.417730
v 1.094306 0.296067 -1.428639
v 1.094306 0.440716 -1.405729
v 1.094306 0.416982 -1.401970
v 1.094306 0.543628 -1.455308
v 1.094306 0.530479 -1.451466
v 1.094306 0.547471 -1.468457
v 1.094306 0.601588 -1.569059
v 1.094306 0.593208 -1.558221
v 1.094306 0.596967 -1.581955
v 1.094306 0.706753 -1.691414
v 1.094306 0.706344 -1.677721
v 1.094306 0.594779 -1.855954
v 1.094306 0.602497 -1.844636
v 1.094306 0.407476 -1.923254
v 1.094306 0.420372 -1.918633
v 1.094306 0.251499 -1.747438
v 1.094306 0.216385 -1.867606
v 1.094306 0.229534 -1.871448
v 1.094306 0.193540 -1.633687
v 1.094306 0.094500 -1.710266
v 1.094306 0.102880 -1.721104
v 1.094306 0.213511 -1.507594
v 1.094306 0.088374 -1.511333
v 1.094306 0.088784 -1.525026
v 1.094306 0.303784 -1.417321
v 1.094306 0.200349 -1.346792
v 1.094306 0.192632 -1.358110
v 1.094306 0.429878 -1.397350
v 1.094306 0.387654 -1.279492
v 1.094306 0.374758 -1.284113
v 1.094306 0.578741 -1.335140
v 1.094306 0.565592 -1.331298
v 1.094306 0.700628 -1.492481
v 1.094306 0.692249 -1.481644
v 1.094306 0.714824 -1.624181
v 1.094306 0.719444 -1.611284
v 1.094306 0.640828 -1.806306
v 1.094306 0.652146 -1.798588
v 1.094306 0.473912 -1.910154
v 1.094306 0.487605 -1.910563
v 1.094305 0.277834 -1.896058
v 1.094305 0.288672 -1.904437
v 1.094306 0.127489 -1.769402
v 1.094306 0.131331 -1.782551
v 1.094306 0.080304 -1.578566
v 1.094306 0.075683 -1.591463
v 1.094306 0.154301 -1.396441
v 1.094306 0.142983 -1.404158
v 1.094306 0.321216 -1.292593
v 1.094306 0.307523 -1.292184
v 1.094305 0.517294 -1.306689
v 1.094305 0.506457 -1.298310
v 1.094306 0.667638 -1.433343
v 1.094306 0.663796 -1.420194
v 1.007916 0.455017 -1.680452
v 1.007916 0.476642 -1.658826
v 1.007916 0.397564 -1.699119
v 1.007916 0.427769 -1.694335
v 1.007916 0.340110 -1.680452
v 1.007916 0.367359 -1.694335
v 1.007916 0.304602 -1.631578
v 1.007916 0.318486 -1.658826
v 1.007916 0.304602 -1.571168
v 1.007916 0.299818 -1.601373
v 1.007916 0.340110 -1.522296
v 1.007916 0.318486 -1.543920
v 1.007916 0.397564 -1.503627
v 1.007916 0.367359 -1.508411
v 1.007916 0.455017 -1.522296
v 1.007916 0.427769 -1.508411
v 1.007916 0.490526 -1.571168
v 1.007916 0.476642 -1.543920
v 1.007916 0.490526 -1.631578
v 1.007916 0.495310 -1.601373
v 1.060686 0.581207 -1.681459
v 1.060686 0.570298 -1.702870
v 1.060686 0.499061 -1.774107
v 1.060686 0.477650 -1.785017
v 1.060686 0.378146 -1.800776
v 1.060686 0.354413 -1.797017
v 1.060686 0.264648 -1.751280
v 1.060686 0.247657 -1.734289
v 1.060686 0.201920 -1.644525
v 1.060686 0.198161 -1.620791
v 1.060686 0.213921 -1.521287
v 1.060686 0.224830 -1.499876
v 1.060686 0.296067 -1.428639
v 1.060686 0.317477 -1.417730
v 1.060686 0.416982 -1.401970
v 1.060686 0.440716 -1.405729
v 1.060686 0.530479 -1.451466
v 1.060686 0.547471 -1.468457
v 1.060686 0.593208 -1.558221
v 1.060686 0.596967 -1.581955
v 1.060686 0.706344 -1.677721
v 1.060686 0.581616 -1.695153
v 1.060686 0.706753 -1.691414
v 1.060686 0.602497 -1.844636
v 1.060686 0.491343 -1.785426
v 1.060686 0.594779 -1.855954
v 1.060686 0.420372 -1.918633
v 1.060686 0.365250 -1.805397
v 1.060686 0.407476 -1.923254
v 1.060686 0.229534 -1.871448
v 1.060686 0.251499 -1.747438
v 1.060686 0.216385 -1.867606
v 1.060686 0.102880 -1.721104
v 1.060686 0.193540 -1.633687
v 1.060686 0.094500 -1.710266
v 1.060686 0.088784 -1.525026
v 1.060686 0.213511 -1.507594
v 1.060686 0.088374 -1.511333
v 1.060687 0.192632 -1.358110
v 1.060686 0.303784 -1.417321
v 1.060687 0.200349 -1.346792
v 1.060686 0.374758 -1.284113
v 1.060686 0.429878 -1.397350
v 1.060686 0.387654 -1.279492
v 1.060686 0.565592 -1.331298
v 1.060686 0.543628 -1.455308
v 1.060686 0.578741 -1.335140
v 1.060686 0.692249 -1.481644
v 1.060686 0.601588 -1.569059
v 1.060686 0.700628 -1.492481
v 1.060686 0.719444 -1.611284
v 1.060686 0.714824 -1.624181
v 1.060687 0.652146 -1.798588
v 1.060687 0.640828 -1.806306
v 1.060686 0.487605 -1.910563
v 1.060686 0.473912 -1.910154
v 1.060686 0.288672 -1.904437
v 1.060686 0.277834 -1.896058
v 1.060687 0.131331 -1.782551
v 1.060687 0.127489 -1.769402
v 1.060686 0.075683 -1.591463
v 1.060686 0.080304 -1.578566
v 1.060687 0.142983 -1.404158
v 1.060687 0.154301 -1.396441
v 1.060686 0.307523 -1.292184
v 1.060686 0.321216 -1.292593
v 1.060686 0.506457 -1.298310
v 1.060686 0.517294 -1.306689
v 1.060686 0.663796 -1.420194
v 1.060686 0.667638 -1.433343
v 1.005633 0.611440 -1.689963
v 1.005633 0.561258 -1.765067
v 0.949202 0.561258 -1.765067
v 0.949202 0.611440 -1.689963
v 1.005633 0.486154 -1.815249
v 0.949202 0.486154 -1.815249
v 1.005633 0.397564 -1.832871
v 0.949202 0.397564 -1.832871
v 1.005633 0.308974 -1.815249
v 0.949202 0.308974 -1.815249
v 1.005633 0.233870 -1.765067
v 0.949202 0.233870 -1.765067
v 1.005633 0.183688 -1.689964
v 0.949202 0.183688 -1.689964
v 1.005633 0.166066 -1.601373
v 0.949202 0.166066 -1.601373
v 1.005633 0.183688 -1.512782
v 0.949202 0.183688 -1.512782
v 1.005633 0.233870 -1.437679
v 0.949202 0.233870 -1.437679
v 1.005633 0.308973 -1.387497
v 0.949202 0.308973 -1.387497
v 1.005633 0.397564 -1.369875
v 0.949202 0.397564 -1.369875
v 1.005633 0.486154 -1.387497
v 0.949202 0.486154 -1.387497
v 1.005633 0.561258 -1.437679
v 0.949202 0.561258 -1.437679
v 1.005633 0.611440 -1.512782
v 0.949202 0.611440 -1.512782
v 1.005633 0.629062 -1.601373
v 0.949202 0.629062 -1.601373
v 1.005633 0.397564 -1.601373
vn 1.0000 -0.0000 -0.0000
vn 0.7994 -0.4860 0.3531
vn 0.7994 -0.5714 0.1856
vn 0.7994 -0.3531 0.4860
vn 0.7994 -0.1856 0.5714
vn 0.7994 -0.0000 0.6008
vn 0.7994 0.1856 0.5714
vn 0.7994 0.3531 0.4860
vn 0.7994 0.4860 0.3531
vn 0.7994 0.5714 0.1857
vn 0.7994 0.5714 0.1856
vn 0.7994 0.6008 -0.0000
vn 0.7994 0.5714 -0.1856
vn 0.7994 0.5714 -0.1857
vn 0.7994 0.4860 -0.3531
vn 0.7994 0.3531 -0.4860
vn 0.7994 0.1857 -0.5714
vn 0.7994 -0.0000 -0.6008
vn 0.7994 -0.1856 -0.5714
vn 0.7994 -0.1857 -0.5714
vn 0.7994 -0.3531 -0.4860
vn 0.7994 -0.4860 -0.3531
vn 0.7994 -0.5714 -0.1856
vn 0.7994 -0.6008 -0.0000
vn -0.0000 -0.8090 0.5878
vn -0.0000 -0.9511 0.3090
vn -0.0000 -0.5878 0.8090
vn -0.0000 -0.3090 0.9511
vn -0.0000 -0.0000 1.0000
vn -0.0000 0.3090 0.9511
vn -0.0000 0.5878 0.8090
vn -0.0000 0.8090 0.5878
vn -0.0000 0.9511 0.3090
vn -0.0000 1.0000 -0.0000
vn -0.0000 0.9511 -0.3090
vn -0.0000 0.8090 -0.5878
vn -0.0000 0.5878 -0.8090
vn -0.0000 0.3090 -0.9511
vn -0.0000 -0.0000 -1.0000
vn -0.0000 -0.3090 -0.9511
vn -0.0000 -0.5878 -0.8090
vn -0.0000 -0.8090 -0.5878
vn -0.0000 -0.9511 -0.3090
vn -0.0000 -1.0000 -0.0000
vn 0.0270 0.9507 -0.3088
vn 0.6858 0.6922 -0.2249
vn 0.6858 0.5888 -0.4278
vn 0.0270 0.8087 -0.5876
vn 0.9981 0.0579 -0.0188
vn 0.9981 0.0493 -0.0358
vn 0.6857 0.7278 -0.0000
vn 0.9981 0.0609 -0.0000
vn 0.0270 0.9996 -0.0001
vn 0.6857 0.4278 -0.5888
vn 0.0270 0.5876 -0.8087
vn 0.9981 0.0358 -0.0493
vn 0.6858 0.2249 -0.6922
vn 0.0271 0.3089 -0.9507
vn 0.9981 0.0188 -0.0579
vn 0.6858 -0.0000 -0.7278
vn 0.0271 -0.0000 -0.9996
vn 0.9981 -0.0000 -0.0609
vn 0.6858 -0.2249 -0.6922
vn 0.0270 -0.3089 -0.9507
vn 0.9981 -0.0188 -0.0579
vn 0.6857 -0.4278 -0.5888
vn 0.0270 -0.5876 -0.8087
vn 0.9981 -0.0358 -0.0493
vn 0.6858 -0.5888 -0.4278
vn 0.0270 -0.8087 -0.5876
vn 0.9981 -0.0493 -0.0358
vn 0.6858 -0.6922 -0.2249
vn 0.0270 -0.9507 -0.3089
vn 0.9981 -0.0579 -0.0188
vn 0.6857 -0.7278 -0.0000
vn 0.0270 -0.9996 -0.0000
vn 0.9981 -0.0609 -0.0000
vn 0.6857 -0.6922 0.2249
vn 0.0270 -0.9507 0.3089
vn 0.9981 -0.0579 0.0188
vn 0.6857 -0.5888 0.4278
vn 0.0270 -0.8087 0.5876
vn 0.9981 -0.0493 0.0358
vn 0.6857 -0.4278 0.5888
vn 0.0270 -0.5876 0.8087
vn 0.9981 -0.0358 0.0493
vn 0.6857 -0.2249 0.6922
vn 0.0270 -0.3089 0.9507
vn 0.9981 -0.0188 0.0579
vn 0.6857 -0.0000 0.7278
vn 0.0270 -0.0000 0.9996
vn 0.9981 -0.0000 0.0609
vn 0.6857 0.2249 0.6922
vn 0.0270 0.3089 0.9507
vn 0.9981 0.0188 0.0579
vn 0.6857 0.4278 0.5888
vn 0.0270 0.5876 0.8087
vn 0.9981 0.0358 0.0493
vn 0.6857 0.5888 0.4278
vn 0.0270 0.8087 0.5876
vn 0.9981 0.0493 0.0358
vn 0.6857 0.6922 0.2249
vn 0.0270 0.9507 0.3089
vn 0.9981 0.0579 0.0188
vn -0.0270 0.9507 -0.3089
vn -0.6857 0.6923 -0.2249
vn -0.6857 0.7278 -0.0000
vn -0.0270 0.9996 -0.0000
vn -0.9987 0.0493 -0.0160
vn -0.9987 0.0518 -0.0000
vn -0.6857 0.5888 -0.4278
vn -0.9987 0.0419 -0.0305
vn -0.0270 0.8087 -0.5876
vn -0.6857 0.4278 -0.5888
vn -0.9987 0.0304 -0.0419
vn -0.0270 0.5876 -0.8087
vn -0.6857 0.2249 -0.6923
vn -0.9987 0.0160 -0.0493
vn -0.0271 0.3089 -0.9507
vn -0.6858 -0.0000 -0.7278
vn -0.9987 -0.0000 -0.0518
vn -0.0271 -0.0000 -0.9996
vn -0.6858 -0.2249 -0.6922
vn -0.9987 -0.0160 -0.0493
vn -0.0270 -0.3089 -0.9507
vn -0.6857 -0.4278 -0.5888
vn -0.9987 -0.0305 -0.0419
vn -0.0270 -0.5876 -0.8087
vn -0.6858 -0.5888 -0.4278
vn -0.9987 -0.0419 -0.0305
vn -0.0270 -0.8087 -0.5876
vn -0.6858 -0.6922 -0.2249
vn -0.9987 -0.0494 -0.0160
vn -0.0270 -0.9507 -0.3089
vn -0.6858 -0.7278 -0.0000
vn -0.9987 -0.0518 -0.0000
vn -0.0270 -0.9996 -0.0000
vn -0.6857 -0.6922 0.2249
vn -0.9987 -0.0493 0.0160
vn -0.0270 -0.9507 0.3089
vn -0.6857 -0.5888 0.4278
vn -0.9987 -0.0419 0.0305
vn -0.0270 -0.8087 0.5876
vn -0.6857 -0.4278 0.5888
vn -0.9987 -0.0304 0.0419
vn -0.0270 -0.5876 0.8087
vn -0.6857 -0.2249 0.6922
vn -0.9987 -0.0160 0.0493
vn -0.0270 -0.3089 0.9507
vn -0.6857 -0.0000 0.7278
vn -0.9987 -0.0000 0.0518
vn -0.0270 -0.0000 0.9996
vn -0.6857 0.2249 0.6922
vn -0.9987 0.0160 0.0493
vn -0.0270 0.3089 0.9507
vn -0.6857 0.4278 0.5888
vn -0.9987 0.0305 0.0419
vn -0.0270 0.5877 0.8087
vn -0.6857 0.5888 0.4278
vn -0.9987 0.0420 0.0304
vn -0.0270 0.8087 0.5876
vn -0.6857 0.6922 0.2249
vn -0.9987 0.0493 0.0160
vn -0.0270 0.9507 0.3089
vn -1.0000 -0.0000 -0.0000
vn 0.9829 -0.1754 0.0570
vn 0.9829 -0.1492 0.1084
vn 0.9829 -0.1084 0.1492
vn 0.9829 -0.0570 0.1754
vn 0.9829 -0.0000 0.1844
vn 0.9829 0.0570 0.1754
vn 0.9829 0.1084 0.1492
vn 0.9829 0.1492 0.1084
vn 0.9829 0.1754 0.0570
vn 0.9829 0.1844 -0.0000
vn 0.9829 0.1754 -0.0570
vn 0.9829 0.1492 -0.1084
vn 0.9829 0.1084 -0.1492
vn 0.9829 0.0570 -0.1754
vn 0.9829 -0.0000 -0.1844
vn 0.9829 -0.0570 -0.1754
vn 0.9829 -0.1084 -0.1492
vn 0.9829 -0.1492 -0.1084
vn 0.9829 -0.1754 -0.0570
vn 0.9829 -0.1844 -0.0000
vn 0.2169 0.8454 -0.4881
vn 0.2169 0.4881 -0.8454
vn 0.2169 -0.0000 -0.9762
vn 0.2169 -0.4881 -0.8454
vn 0.2169 -0.8454 -0.4881
vn 0.2169 -0.9762 -0.0000
vn 0.2169 -0.8454 0.4881
vn 0.2169 -0.4881 0.8454
vn 0.2169 -0.0000 0.9762
vn 0.2169 0.4881 0.8454
vn 0.2169 0.8454 0.4881
vn 0.2169 0.9762 -0.0000
vn 0.9644 -0.2356 0.1201
vn 0.9644 -0.2357 0.1201
vn 0.9644 -0.1201 0.2357
vn 0.9644 -0.1200 0.2357
vn 0.9644 0.0414 0.2612
vn 0.9644 0.1870 0.1870
vn 0.9644 0.2612 0.0414
vn 0.9644 0.2357 -0.1201
vn 0.9644 0.1201 -0.2357
vn 0.9644 0.1200 -0.2357
vn 0.9644 -0.0414 -0.2612
vn 0.9644 -0.1870 -0.1870
vn 0.9644 -0.2612 -0.0414
vn 0.9658 -0.2310 0.1177
vn 0.9658 -0.1177 0.2310
vn 0.9658 0.0406 0.2561
vn 0.9658 0.1833 0.1833
vn 0.9658 0.2561 0.0406
vn 0.9658 0.2310 -0.1177
vn 0.9658 0.1177 -0.2310
vn 0.9658 -0.0406 -0.2561
vn 0.9658 -0.1833 -0.1833
vn 0.9658 -0.2561 -0.0406
vn 0.5240 0.6023 -0.6022
vn 0.5240 0.1332 -0.8412
vn 0.5240 -0.3866 -0.7589
vn 0.5240 -0.7589 -0.3867
vn 0.5240 -0.8412 0.1332
vn 0.5240 -0.6022 0.6023
vn 0.5240 -0.1332 0.8412
vn 0.5240 0.3867 0.7589
vn 0.5240 0.7589 0.3867
vn 0.5240 0.8412 -0.1332
vn 0.0465 0.4471 0.8933
vn 0.0209 0.1837 0.9828
vn 0.0275 0.2518 0.9674
vn 0.0209 -0.6871 -0.7263
vn 0.0465 -0.4599 -0.8868
vn 0.0275 -0.6346 -0.7723
vn 0.0465 0.8868 0.4599
vn 0.0209 0.7263 0.6871
vn 0.0275 0.7723 0.6347
vn 0.0209 -0.9828 -0.1837
vn 0.0465 -0.8933 -0.4471
vn 0.0275 -0.9674 -0.2518
vn 0.0465 0.9877 -0.1492
vn 0.0209 0.9914 0.1290
vn 0.0275 0.9978 0.0595
vn 0.0209 -0.9030 0.4290
vn 0.0465 -0.9855 0.1633
vn 0.0275 -0.9306 0.3649
vn 0.0465 0.7114 -0.7013
vn 0.0209 0.8779 -0.4784
vn 0.0275 0.8422 -0.5384
vn 0.0209 -0.4784 0.8779
vn 0.0465 -0.7013 0.7114
vn 0.0275 -0.5384 0.8422
vn 0.0465 0.1633 -0.9855
vn 0.0209 0.4290 -0.9031
vn 0.0275 0.3649 -0.9306
vn 0.0209 0.1290 0.9914
vn 0.0465 -0.1492 0.9877
vn 0.0275 0.0594 0.9979
vn 0.0465 -0.4471 -0.8933
vn 0.0209 -0.1837 -0.9828
vn 0.0275 -0.2518 -0.9674
vn 0.0209 0.6871 0.7263
vn 0.0465 0.4599 0.8868
vn 0.0275 0.6346 0.7723
vn 0.0465 -0.8868 -0.4599
vn 0.0209 -0.7263 -0.6871
vn 0.0275 -0.7723 -0.6346
vn 0.0209 0.9828 0.1837
vn 0.0465 0.8933 0.4471
vn 0.0275 0.9674 0.2518
vn 0.0465 -0.9877 0.1492
vn 0.0209 -0.9914 -0.1289
vn 0.0275 -0.9979 -0.0594
vn 0.0209 0.9031 -0.4290
vn 0.0465 0.9855 -0.1633
vn 0.0275 0.9306 -0.3649
vn 0.0465 -0.7114 0.7013
vn 0.0209 -0.8779 0.4784
vn 0.0275 -0.8422 0.5384
vn 0.0209 0.4784 -0.8779
vn 0.0465 0.7013 -0.7114
vn 0.0275 0.5384 -0.8422
vn 0.0465 -0.1633 0.9855
vn 0.0209 -0.4290 0.9030
vn 0.0275 -0.3649 0.9306
vn 0.0209 -0.1290 -0.9914
vn 0.0465 0.1492 -0.9877
vn 0.0275 -0.0594 -0.9979
vn -0.0000 -0.0299 0.9996
vn -0.0000 0.0299 -0.9996
vn -0.0000 0.5634 0.8262
vn -0.0000 -0.5634 -0.8262
vn -0.0000 0.9414 0.3373
vn -0.0000 -0.9414 -0.3373
vn -0.0000 0.9599 -0.2805
vn -0.0000 -0.9599 0.2805
vn -0.0000 0.6117 -0.7911
vn -0.0000 -0.6117 0.7911
vn -0.0000 0.3373 0.9414
vn -0.0000 -0.3373 -0.9414
vn -0.0000 0.8262 0.5634
vn -0.0000 -0.8262 -0.5634
vn -0.0000 0.9996 -0.0299
vn -0.0000 -0.9996 0.0299
vn -0.0000 0.7911 -0.6117
vn -0.0000 -0.7911 0.6117
vn -0.0000 0.2805 -0.9599
vn -0.0000 -0.2805 0.9599
vn -0.0000 0.9239 -0.3827
vn -0.0000 0.7071 -0.7071
vn -0.0000 0.3827 -0.9239
vn -0.0000 -0.3827 -0.9239
vn -0.0000 -0.7071 -0.7071
vn -0.0000 -0.9239 -0.3827
vn -0.0000 -0.9239 0.3827
vn -0.0000 -0.7071 0.7071
vn -0.0000 -0.3827 0.9239
vn -0.0000 0.3827 0.9239
vn -0.0000 0.7071 0.7071
vn -0.0000 0.9239 0.3827
vt 0.987442 0.682772
vt 0.982339 0.685372
vt 0.976683 0.667964
vt 0.991491 0.678722
vt 0.994091 0.673620
vt 0.994986 0.667964
vt 0.994091 0.662308
vt 0.991491 0.657205
vt 0.987442 0.653155
vt 0.982339 0.650556
vt 0.976683 0.649660
vt 0.971027 0.650556
vt 0.965924 0.653155
vt 0.961875 0.657205
vt 0.959275 0.662308
vt 0.958379 0.667964
vt 0.959275 0.673620
vt 0.961875 0.678722
vt 0.965924 0.682772
vt 0.971027 0.685372
vt 0.976683 0.686268
vt 0.817489 0.694669
vt 0.804624 0.701224
vt 0.803813 0.698721
vt 0.815944 0.692540
vt 0.827698 0.684461
vt 0.825571 0.682913
vt 0.834253 0.671596
vt 0.831752 0.670782
vt 0.836511 0.657336
vt 0.833881 0.657334
vt 0.834253 0.643076
vt 0.831750 0.643887
vt 0.827698 0.630212
vt 0.825569 0.631757
vt 0.817489 0.620002
vt 0.815942 0.622129
vt 0.804625 0.613448
vt 0.803811 0.615949
vt 0.790365 0.611189
vt 0.790364 0.613820
vt 0.776105 0.613447
vt 0.776916 0.615950
vt 0.763241 0.620002
vt 0.764786 0.622131
vt 0.753031 0.630211
vt 0.755159 0.631759
vt 0.746477 0.643076
vt 0.748978 0.643889
vt 0.744218 0.657335
vt 0.746849 0.657337
vt 0.746476 0.671595
vt 0.748979 0.670784
vt 0.753031 0.684460
vt 0.755161 0.682915
vt 0.763240 0.694669
vt 0.764788 0.692542
vt 0.776104 0.701224
vt 0.776919 0.698722
vt 0.790365 0.703482
vt 0.790366 0.700852
vt 0.802614 0.695041
vt 0.813667 0.689410
vt 0.822438 0.680640
vt 0.828069 0.669588
vt 0.830010 0.657337
vt 0.828070 0.645086
vt 0.822439 0.634034
vt 0.813668 0.625263
vt 0.802617 0.619631
vt 0.790366 0.617690
vt 0.778115 0.619630
vt 0.767063 0.625261
vt 0.758292 0.634031
vt 0.752661 0.645083
vt 0.750719 0.657334
vt 0.752660 0.669586
vt 0.758291 0.680637
vt 0.767061 0.689408
vt 0.778113 0.695040
vt 0.790364 0.696981
vt 0.997633 0.826854
vt 0.997628 0.836333
vt 0.984767 0.836327
vt 0.984771 0.826849
vt 0.997637 0.817375
vt 0.984775 0.817370
vt 0.997641 0.807897
vt 0.984780 0.807891
vt 0.997645 0.798418
vt 0.984784 0.798413
vt 0.997649 0.788940
vt 0.984788 0.788934
vt 0.997653 0.779461
vt 0.984792 0.779455
vt 0.997658 0.769982
vt 0.984796 0.769976
vt 0.997616 0.950074
vt 0.997616 0.959552
vt 0.984754 0.959552
vt 0.984754 0.950074
vt 0.997616 0.940595
vt 0.984754 0.940595
vt 0.997616 0.931116
vt 0.984754 0.931116
vt 0.997616 0.921638
vt 0.984754 0.921638
vt 0.997616 0.912159
vt 0.984754 0.912159
vt 0.997616 0.902680
vt 0.984754 0.902680
vt 0.997616 0.893202
vt 0.984754 0.893202
vt 0.997616 0.883723
vt 0.984754 0.883723
vt 0.997616 0.874244
vt 0.984754 0.874244
vt 0.997616 0.864767
vt 0.984754 0.864765
vt 0.997620 0.855290
vt 0.984758 0.855285
vt 0.997624 0.845812
vt 0.984763 0.845806
vt 0.809195 0.715299
vt 0.808191 0.712193
vt 0.824270 0.704000
vt 0.826185 0.706644
vt 0.807172 0.709061
vt 0.822334 0.701335
vt 0.790366 0.715017
vt 0.790365 0.711723
vt 0.790362 0.718282
vt 0.837031 0.691238
vt 0.839669 0.693162
vt 0.834366 0.689303
vt 0.845224 0.675159
vt 0.848327 0.676172
vt 0.842090 0.674141
vt 0.848047 0.657334
vt 0.851310 0.657339
vt 0.844752 0.657334
vt 0.845223 0.639510
vt 0.848329 0.638506
vt 0.842090 0.640528
vt 0.837029 0.623430
vt 0.839673 0.621515
vt 0.834364 0.625367
vt 0.824268 0.610670
vt 0.826190 0.608031
vt 0.822332 0.613335
vt 0.808188 0.602477
vt 0.809201 0.599374
vt 0.807170 0.605610
vt 0.790363 0.599654
vt 0.790368 0.596390
vt 0.790364 0.602948
vt 0.772538 0.602479
vt 0.771535 0.599372
vt 0.773557 0.605611
vt 0.756459 0.610671
vt 0.754544 0.608028
vt 0.758396 0.613336
vt 0.743698 0.623433
vt 0.741060 0.621510
vt 0.746364 0.625369
vt 0.735506 0.639513
vt 0.732403 0.638499
vt 0.738639 0.640530
vt 0.732683 0.657337
vt 0.729419 0.657332
vt 0.735977 0.657337
vt 0.735507 0.675162
vt 0.732401 0.676166
vt 0.738640 0.674143
vt 0.743700 0.691241
vt 0.741057 0.693156
vt 0.746365 0.689304
vt 0.756462 0.704001
vt 0.754539 0.706640
vt 0.758397 0.701336
vt 0.772542 0.712194
vt 0.771528 0.715298
vt 0.773559 0.709061
vt 0.950450 0.620518
vt 0.950096 0.621599
vt 0.944131 0.620656
vt 0.944134 0.619518
vt 0.949740 0.622689
vt 0.944131 0.621803
vt 0.955476 0.624336
vt 0.954801 0.625262
vt 0.956147 0.623417
vt 0.959745 0.628599
vt 0.958819 0.629271
vt 0.960668 0.627932
vt 0.962487 0.633971
vt 0.961397 0.634323
vt 0.963571 0.633621
vt 0.963432 0.639925
vt 0.962286 0.639925
vt 0.964571 0.639927
vt 0.962488 0.645879
vt 0.961398 0.645527
vt 0.963570 0.646234
vt 0.959746 0.651252
vt 0.958820 0.650579
vt 0.960667 0.651922
vt 0.955476 0.655515
vt 0.954803 0.654588
vt 0.956145 0.656436
vt 0.950097 0.658252
vt 0.949742 0.657162
vt 0.950447 0.659335
vt 0.944133 0.659195
vt 0.944133 0.658048
vt 0.944131 0.660333
vt 0.938168 0.658252
vt 0.938525 0.657163
vt 0.937815 0.659334
vt 0.932789 0.655516
vt 0.933463 0.654590
vt 0.932118 0.656435
vt 0.928520 0.651253
vt 0.929446 0.650580
vt 0.927596 0.651920
vt 0.925777 0.645880
vt 0.926867 0.645529
vt 0.924693 0.646231
vt 0.924832 0.639927
vt 0.925979 0.639927
vt 0.923694 0.639925
vt 0.925777 0.633973
vt 0.926867 0.634325
vt 0.924695 0.633618
vt 0.928519 0.628600
vt 0.929445 0.629273
vt 0.927598 0.627930
vt 0.932788 0.624337
vt 0.933462 0.625263
vt 0.932120 0.623415
vt 0.938167 0.621600
vt 0.938523 0.622690
vt 0.937818 0.620517
vt 0.997409 0.543712
vt 0.997409 0.562340
vt 0.953795 0.562340
vt 0.953795 0.543712
vt 0.997409 0.580968
vt 0.953795 0.580968
vt 0.997409 0.599594
vt 0.953795 0.599594
vt 0.997409 0.618218
vt 0.953795 0.618218
vt 0.997409 0.525096
vt 0.997409 0.543716
vt 0.953795 0.543716
vt 0.953795 0.525096
vt 0.997409 0.562342
vt 0.953795 0.562342
vt 0.997409 0.599597
vt 0.953795 0.599597
vt 0.997409 0.618226
vt 0.953795 0.618226
vt 0.997409 0.525099
vt 0.997409 0.543717
vt 0.953795 0.543717
vt 0.953795 0.525099
vt 0.997409 0.562343
vt 0.953795 0.562343
vt 0.997409 0.618228
vt 0.953795 0.618228
vt 0.997409 0.525098
vt 0.953795 0.525098
vt 0.997409 0.618227
vt 0.953795 0.618227
vt 0.997409 0.525074
vt 0.953795 0.525074
vt 0.944132 0.639926
vt 0.805409 0.703634
vt 0.818980 0.696719
vt 0.829749 0.685949
vt 0.836663 0.672379
vt 0.839046 0.657335
vt 0.836663 0.642292
vt 0.829748 0.628721
vt 0.818979 0.617951
vt 0.805408 0.611037
vt 0.790365 0.608654
vt 0.775321 0.611037
vt 0.761750 0.617952
vt 0.750981 0.628722
vt 0.744066 0.642293
vt 0.741683 0.657337
vt 0.744066 0.672380
vt 0.750982 0.685950
vt 0.761751 0.696720
vt 0.775322 0.703634
vt 0.790365 0.706017
vt 0.858693 0.665669
vt 0.858693 0.669504
vt 0.855138 0.669509
vt 0.855138 0.665675
vt 0.858693 0.673340
vt 0.855138 0.673340
vt 0.858693 0.677175
vt 0.855138 0.677175
vt 0.858693 0.680994
vt 0.855138 0.681029
vt 0.858693 0.684722
vt 0.855138 0.684995
vt 0.858693 0.638955
vt 0.858693 0.642683
vt 0.855138 0.642647
vt 0.855138 0.638681
vt 0.858693 0.646501
vt 0.855138 0.646501
vt 0.858693 0.650335
vt 0.855138 0.650335
vt 0.858693 0.654172
vt 0.855138 0.654167
vt 0.858693 0.658007
vt 0.855138 0.658001
vt 0.858693 0.661838
vt 0.855138 0.661838
vt 0.862880 0.664586
vt 0.865524 0.661941
vt 0.869137 0.668198
vt 0.861912 0.668198
vt 0.862880 0.671811
vt 0.865524 0.674455
vt 0.869137 0.675423
vt 0.872750 0.674455
vt 0.875394 0.671811
vt 0.876362 0.668198
vt 0.875394 0.664586
vt 0.872750 0.661941
vt 0.869137 0.660973
vt 0.941659 0.724756
vt 0.944835 0.723182
vt 0.948302 0.734051
vt 0.939220 0.727335
vt 0.937565 0.730502
vt 0.937036 0.734051
vt 0.937609 0.737586
vt 0.939157 0.740804
vt 0.941706 0.743288
vt 0.944809 0.744959
vt 0.948306 0.745497
vt 0.951768 0.744920
vt 0.954945 0.743345
vt 0.957384 0.740765
vt 0.959038 0.737600
vt 0.959569 0.734051
vt 0.958994 0.730516
vt 0.957446 0.727297
vt 0.954897 0.724813
vt 0.951793 0.723142
vt 0.948298 0.722605
vt 0.934145 0.705082
vt 0.936176 0.705170
vt 0.932981 0.706747
vt 0.920356 0.719201
vt 0.922051 0.718082
vt 0.920395 0.721230
vt 0.917265 0.739177
vt 0.917944 0.737265
vt 0.918519 0.740775
vt 0.928150 0.757644
vt 0.925592 0.755168
vt 0.945343 0.765410
vt 0.941819 0.764869
vt 0.963622 0.761355
vt 0.960427 0.762931
vt 0.976208 0.746872
vt 0.974553 0.750021
vt 0.978085 0.727328
vt 0.978660 0.730837
vt 0.970415 0.710993
vt 0.971012 0.712934
vt 0.968454 0.710457
vt 0.953172 0.701995
vt 0.954785 0.703232
vt 0.951261 0.702692
vt 0.934821 0.686496
vt 0.936852 0.686570
vt 0.910148 0.703844
vt 0.911840 0.702718
vt 0.900016 0.732822
vt 0.900717 0.730914
vt 0.926189 0.757108
vt 0.908424 0.762272
vt 0.907855 0.760321
vt 0.943431 0.766105
vt 0.932037 0.780848
vt 0.930429 0.779606
vt 0.962458 0.763019
vt 0.961782 0.781605
vt 0.959752 0.781531
vt 0.976248 0.748901
vt 0.986455 0.764258
vt 0.984763 0.765383
vt 0.979339 0.728925
vt 0.996588 0.735279
vt 0.995886 0.737187
vt 0.988181 0.705829
vt 0.988748 0.707780
vt 0.964567 0.687253
vt 0.966174 0.688496
vt 0.944928 0.685154
vt 0.946838 0.684464
vt 0.917655 0.696284
vt 0.918801 0.694605
vt 0.902012 0.721878
vt 0.901940 0.719846
vt 0.904110 0.752186
vt 0.902848 0.750591
vt 0.923128 0.775488
vt 0.921172 0.774937
vt 0.951676 0.782947
vt 0.949765 0.783638
vt 0.978949 0.771817
vt 0.977803 0.773495
vt 0.994592 0.746222
vt 0.994663 0.748255
vt 0.992493 0.715916
vt 0.993755 0.717510
vt 0.973476 0.692613
vt 0.975432 0.693164
vt 0.846633 0.896225
vt 0.846698 0.892733
vt 0.852405 0.892204
vt 0.852451 0.896919
vt 0.834548 0.896266
vt 0.834626 0.892767
vt 0.840345 0.892210
vt 0.840336 0.896919
vt 0.824386 0.896342
vt 0.824419 0.892859
vt 0.830140 0.892344
vt 0.830194 0.897062
vt 0.774560 0.956710
vt 0.774460 0.960197
vt 0.768770 0.960768
vt 0.768748 0.956032
vt 0.762556 0.956796
vt 0.762451 0.960273
vt 0.756770 0.960849
vt 0.756740 0.956106
vt 0.876292 0.825316
vt 0.879753 0.825485
vt 0.880405 0.831170
vt 0.875669 0.831152
vt 0.795944 0.832542
vt 0.799395 0.832674
vt 0.799980 0.838363
vt 0.795283 0.838378
vt 0.792711 0.843816
vt 0.796183 0.843918
vt 0.796758 0.849612
vt 0.792016 0.849658
vt 0.876597 0.812904
vt 0.880077 0.813007
vt 0.880660 0.818728
vt 0.875937 0.818744
vt 0.786839 0.956183
vt 0.786719 0.959632
vt 0.781003 0.960209
vt 0.781000 0.955486
vt 0.792351 0.977149
vt 0.787293 0.977089
vt 0.841137 0.913932
vt 0.846177 0.913832
vt 0.841190 0.875091
vt 0.846251 0.875168
vt 0.829858 0.914289
vt 0.834863 0.914069
vt 0.829916 0.874773
vt 0.834952 0.874963
vt 0.818831 0.914047
vt 0.823894 0.913963
vt 0.818885 0.875238
vt 0.823973 0.875306
vt 0.779824 0.938942
vt 0.774789 0.939008
vt 0.779782 0.977940
vt 0.774728 0.977873
vt 0.768445 0.939319
vt 0.763386 0.939341
vt 0.768414 0.977716
vt 0.763342 0.977699
vt 0.858466 0.820224
vt 0.858657 0.825255
vt 0.897617 0.820254
vt 0.897447 0.825312
vt 0.778245 0.827191
vt 0.778319 0.832229
vt 0.817187 0.827198
vt 0.817103 0.832258
vt 0.775160 0.838021
vt 0.775176 0.843070
vt 0.813755 0.838030
vt 0.813739 0.843093
vt 0.858770 0.807798
vt 0.858906 0.812828
vt 0.897878 0.807832
vt 0.897763 0.812886
vt 0.792385 0.938676
vt 0.787349 0.938740
vt 0.793277 0.995544
vt 0.788306 0.995769
vt 0.695150 0.907404
vt 0.695150 0.926181
vt 0.690108 0.926177
vt 0.690108 0.907404
vt 0.840258 0.856845
vt 0.845239 0.856612
vt 0.814653 0.959058
vt 0.814653 0.977834
vt 0.809610 0.977834
vt 0.809610 0.959058
vt 0.828830 0.856547
vt 0.833806 0.856292
vt 0.804624 0.914728
vt 0.804624 0.933503
vt 0.799582 0.933504
vt 0.799582 0.914728
vt 0.817980 0.856981
vt 0.822963 0.856754
vt 0.803057 0.958929
vt 0.803057 0.977704
vt 0.798015 0.977704
vt 0.798015 0.958929
vt 0.780806 0.996110
vt 0.775819 0.996371
vt 0.823580 0.959079
vt 0.823580 0.977854
vt 0.818538 0.977854
vt 0.818538 0.959079
vt 0.769191 0.996085
vt 0.764206 0.996280
vt 0.893722 0.765368
vt 0.893722 0.784147
vt 0.888680 0.784139
vt 0.888680 0.765368
vt 0.915817 0.819224
vt 0.916064 0.824195
vt 0.714648 0.907207
vt 0.714648 0.925980
vt 0.709606 0.925987
vt 0.709606 0.907210
vt 0.835308 0.826238
vt 0.835564 0.831232
vt 0.704901 0.907382
vt 0.704901 0.926157
vt 0.699859 0.926157
vt 0.699859 0.907383
vt 0.831982 0.837244
vt 0.832192 0.842232
vt 0.882521 0.768356
vt 0.882521 0.787131
vt 0.877479 0.787131
vt 0.877479 0.768356
vt 0.916137 0.806817
vt 0.916378 0.811794
vt 0.726673 0.906284
vt 0.726673 0.925059
vt 0.721631 0.925059
vt 0.721631 0.906284
vt 0.726673 0.943835
vt 0.721631 0.943835
vt 0.793263 0.920269
vt 0.788266 0.920043
vt 0.695150 0.944955
vt 0.690108 0.944953
vt 0.840261 0.932175
vt 0.845274 0.932353
vt 0.814653 0.996609
vt 0.809610 0.996609
vt 0.828825 0.932515
vt 0.833847 0.932733
vt 0.804624 0.952278
vt 0.799582 0.952279
vt 0.817982 0.932302
vt 0.822995 0.932476
vt 0.803057 0.996481
vt 0.798016 0.996478
vt 0.780796 0.920750
vt 0.775778 0.920570
vt 0.823580 0.996629
vt 0.818538 0.996629
vt 0.769178 0.920958
vt 0.764171 0.920796
vt 0.893722 0.802920
vt 0.888680 0.802917
vt 0.840263 0.819236
vt 0.840047 0.824251
vt 0.714648 0.944759
vt 0.709606 0.944759
vt 0.759989 0.826259
vt 0.759815 0.831272
vt 0.704901 0.944929
vt 0.699859 0.944936
vt 0.756850 0.837263
vt 0.756714 0.842268
vt 0.882521 0.805906
vt 0.877479 0.805906
vt 0.840518 0.806832
vt 0.840310 0.811844
vt 0.779764 0.630874
vt 0.770450 0.637087
vt 0.765412 0.632097
vt 0.777022 0.624336
vt 0.764224 0.646390
vt 0.757660 0.643708
vt 0.762033 0.657368
vt 0.754943 0.657401
vt 0.764210 0.668348
vt 0.757672 0.671092
vt 0.770423 0.677660
vt 0.765433 0.682696
vt 0.779726 0.683884
vt 0.777043 0.690447
vt 0.790703 0.686075
vt 0.790736 0.693165
vt 0.801683 0.683898
vt 0.804426 0.690436
vt 0.810994 0.677685
vt 0.816032 0.682675
vt 0.817219 0.668382
vt 0.823782 0.671064
vt 0.819410 0.657405
vt 0.826500 0.657372
vt 0.817232 0.646424
vt 0.823771 0.643680
vt 0.811015 0.637112
vt 0.816005 0.632073
vt 0.801700 0.630888
vt 0.804367 0.624322
vt 0.790756 0.628706
vt 0.790738 0.621615
vt 0.790721 0.657386
s 1
usemtl Lamborghini_Aventador:BodySG.002
f 1/1/1 2/2/1 3/3/1
f 4/4/1 1/1/1 3/3/1
f 5/5/1 4/4/1 3/3/1
f 6/6/1 5/5/1 3/3/1
f 7/7/1 6/6/1 3/3/1
f 8/8/1 7/7/1 3/3/1
f 9/9/1 8/8/1 3/3/1
f 10/10/1 9/9/1 3/3/1
f 11/11/1 10/10/1 3/3/1
f 12/12/1 11/11/1 3/3/1
f 13/13/1 12/12/1 3/3/1
f 14/14/1 13/13/1 3/3/1
f 15/15/1 14/14/1 3/3/1
f 16/16/1 15/15/1 3/3/1
f 17/17/1 16/16/1 3/3/1
f 18/18/1 17/17/1 3/3/1
f 19/19/1 18/18/1 3/3/1
f 20/20/1 19/19/1 3/3/1
f 21/21/1 20/20/1 3/3/1
f 2/2/1 21/21/1 3/3/1
f 22/22/1 23/23/1 24/24/1 25/25/1
f 26/26/1 22/22/1 25/25/1 27/27/1
f 28/28/1 26/26/1 27/27/1 29/29/1
f 30/30/1 28/28/1 29/29/1 31/31/1
f 32/32/1 30/30/1 31/31/1 33/33/1
f 34/34/1 32/32/1 33/33/1 35/35/1
f 36/36/1 34/34/1 35/35/1 37/37/1
f 38/38/1 36/36/1 37/37/1 39/39/1
f 40/40/1 38/38/1 39/39/1 41/41/1
f 42/42/1 40/40/1 41/41/1 43/43/1
f 44/44/1 42/42/1 43/43/1 45/45/1
f 46/46/1 44/44/1 45/45/1 47/47/1
f 48/48/1 46/46/1 47/47/1 49/49/1
f 50/50/1 48/48/1 49/49/1 51/51/1
f 52/52/1 50/50/1 51/51/1 53/53/1
f 54/54/1 52/52/1 53/53/1 55/55/1
f 56/56/1 54/54/1 55/55/1 57/57/1
f 58/58/1 56/56/1 57/57/1 59/59/1
f 60/60/1 58/58/1 59/59/1 61/61/1
f 23/23/1 60/60/1 61/61/1 24/24/1
f 25/25/2 24/24/3 62/62/3 63/63/2
f 27/27/4 25/25/2 63/63/2 64/64/4
f 29/29/5 27/27/4 64/64/4 65/65/5
f 31/31/6 29/29/5 65/65/5 66/66/6
f 33/33/7 31/31/6 66/66/6 67/67/7
f 35/35/8 33/33/7 67/67/7 68/68/8
f 37/37/9 35/35/8 68/68/8 69/69/9
f 39/39/10 37/37/9 69/69/9 70/70/11
f 41/41/12 39/39/10 70/70/11 71/71/12
f 43/43/13 41/41/12 71/71/12 72/72/14
f 45/45/15 43/43/13 72/72/14 73/73/15
f 47/47/16 45/45/15 73/73/15 74/74/16
f 49/49/17 47/47/16 74/74/16 75/75/17
f 51/51/18 49/49/17 75/75/17 76/76/18
f 53/53/19 51/51/18 76/76/18 77/77/20
f 55/55/21 53/53/19 77/77/20 78/78/21
f 57/57/22 55/55/21 78/78/21 79/79/22
f 59/59/23 57/57/22 79/79/22 80/80/23
f 61/61/24 59/59/23 80/80/23 81/81/24
f 24/24/3 61/61/24 81/81/24 62/62/3
f 63/82/25 62/83/26 2/84/26 1/85/25
f 64/86/27 63/82/25 1/85/25 4/87/27
f 65/88/28 64/86/27 4/87/27 5/89/28
f 66/90/29 65/88/28 5/89/28 6/91/29
f 67/92/30 66/90/29 6/91/29 7/93/30
f 68/94/31 67/92/30 7/93/30 8/95/31
f 69/96/32 68/94/31 8/95/31 9/97/32
f 70/98/33 69/99/32 9/100/32 10/101/33
f 71/102/34 70/98/33 10/101/33 11/103/34
f 72/104/35 71/102/34 11/103/34 12/105/35
f 73/106/36 72/104/35 12/105/35 13/107/36
f 74/108/37 73/106/36 13/107/36 14/109/37
f 75/110/38 74/108/37 14/109/37 15/111/38
f 76/112/39 75/110/38 15/111/38 16/113/39
f 77/114/40 76/112/39 16/113/39 17/115/40
f 78/116/41 77/114/40 17/115/40 18/117/41
f 79/118/42 78/116/41 18/117/41 19/119/42
f 80/120/43 79/118/42 19/119/42 20/121/43
f 81/122/44 80/120/43 20/121/43 21/123/44
f 62/83/26 81/122/44 21/123/44 2/84/26
f 82/124/45 83/125/46 84/126/47 85/127/48
f 83/125/46 86/128/49 87/129/50 84/126/47
f 86/128/49 83/125/46 88/130/51 89/131/52
f 83/125/46 82/124/45 90/132/53 88/130/51
f 85/127/48 84/126/47 91/133/54 92/134/55
f 84/126/47 87/129/50 93/135/56 91/133/54
f 92/134/55 91/133/54 94/136/57 95/137/58
f 91/133/54 93/135/56 96/138/59 94/136/57
f 95/137/58 94/136/57 97/139/60 98/140/61
f 94/136/57 96/138/59 99/141/62 97/139/60
f 98/140/61 97/139/60 100/142/63 101/143/64
f 97/139/60 99/141/62 102/144/65 100/142/63
f 101/143/64 100/142/63 103/145/66 104/146/67
f 100/142/63 102/144/65 105/147/68 103/145/66
f 104/146/67 103/145/66 106/148/69 107/149/70
f 103/145/66 105/147/68 108/150/71 106/148/69
f 107/149/70 106/148/69 109/151/72 110/152/73
f 106/148/69 108/150/71 111/153/74 109/151/72
f 110/152/73 109/151/72 112/154/75 113/155/76
f 109/151/72 111/153/74 114/156/77 112/154/75
f 113/155/76 112/154/75 115/157/78 116/158/79
f 112/154/75 114/156/77 117/159/80 115/157/78
f 116/158/79 115/157/78 118/160/81 119/161/82
f 115/157/78 117/159/80 120/162/83 118/160/81
f 119/161/82 118/160/81 121/163/84 122/164/85
f 118/160/81 120/162/83 123/165/86 121/163/84
f 122/164/85 121/163/84 124/166/87 125/167/88
f 121/163/84 123/165/86 126/168/89 124/166/87
f 125/167/88 124/166/87 127/169/90 128/170/91
f 124/166/87 126/168/89 129/171/92 127/169/90
f 128/170/91 127/169/90 130/172/93 131/173/94
f 127/169/90 129/171/92 132/174/95 130/172/93
f 131/173/94 130/172/93 133/175/96 134/176/97
f 130/172/93 132/174/95 135/177/98 133/175/96
f 134/176/97 133/175/96 136/178/99 137/179/100
f 133/175/96 135/177/98 138/180/101 136/178/99
f 137/179/100 136/178/99 139/181/102 140/182/103
f 136/178/99 138/180/101 141/183/104 139/181/102
f 140/182/103 139/181/102 88/130/51 90/132/53
f 139/181/102 141/183/104 89/131/52 88/130/51
f 142/184/105 143/185/106 144/186/107 145/187/108
f 143/185/106 146/188/109 147/189/110 144/186/107
f 146/188/109 143/185/106 148/190/111 149/191/112
f 143/185/106 142/184/105 150/192/113 148/190/111
f 149/191/112 148/190/111 151/193/114 152/194/115
f 148/190/111 150/192/113 153/195/116 151/193/114
f 152/194/115 151/193/114 154/196/117 155/197/118
f 151/193/114 153/195/116 156/198/119 154/196/117
f 155/197/118 154/196/117 157/199/120 158/200/121
f 154/196/117 156/198/119 159/201/122 157/199/120
f 158/200/121 157/199/120 160/202/123 161/203/124
f 157/199/120 159/201/122 162/204/125 160/202/123
f 161/203/124 160/202/123 163/205/126 164/206/127
f 160/202/123 162/204/125 165/207/128 163/205/126
f 164/206/127 163/205/126 166/208/129 167/209/130
f 163/205/126 165/207/128 168/210/131 166/208/129
f 167/209/130 166/208/129 169/211/132 170/212/133
f 166/208/129 168/210/131 171/213/134 169/211/132
f 170/212/133 169/211/132 172/214/135 173/215/136
f 169/211/132 171/213/134 174/216/137 172/214/135
f 173/215/136 172/214/135 175/217/138 176/218/139
f 172/214/135 174/216/137 177/219/140 175/217/138
f 176/218/139 175/217/138 178/220/141 179/221/142
f 175/217/138 177/219/140 180/222/143 178/220/141
f 179/221/142 178/220/141 181/223/144 182/224/145
f 178/220/141 180/222/143 183/225/146 181/223/144
f 182/224/145 181/223/144 184/226/147 185/227/148
f 181/223/144 183/225/146 186/228/149 184/226/147
f 185/227/148 184/226/147 187/229/150 188/230/151
f 184/226/147 186/228/149 189/231/152 187/229/150
f 188/230/151 187/229/150 190/232/153 191/233/154
f 187/229/150 189/231/152 192/234/155 190/232/153
f 191/233/154 190/232/153 193/235/156 194/236/157
f 190/232/153 192/234/155 195/237/158 193/235/156
f 194/236/157 193/235/156 196/238/159 197/239/160
f 193/235/156 195/237/158 198/240/161 196/238/159
f 197/239/160 196/238/159 199/241/162 200/242/163
f 196/238/159 198/240/161 201/243/164 199/241/162
f 200/242/163 199/241/162 144/186/107 147/189/110
f 199/241/162 201/243/164 145/187/108 144/186/107
f 82/244/45 85/245/48 150/246/113 142/247/105
f 85/245/48 92/248/55 153/249/116 150/246/113
f 92/248/55 95/250/58 156/251/119 153/249/116
f 95/250/58 98/252/61 159/253/122 156/251/119
f 98/254/61 101/255/64 162/256/125 159/257/122
f 101/255/64 104/258/67 165/259/128 162/256/125
f 104/258/67 107/248/70 168/249/131 165/259/128
f 107/248/70 110/260/73 171/261/134 168/249/131
f 110/260/73 113/262/76 174/263/137 171/261/134
f 113/264/76 116/265/79 177/266/140 174/267/137
f 116/265/79 119/268/82 180/269/143 177/266/140
f 119/268/82 122/248/85 183/249/146 180/269/143
f 122/248/85 125/260/88 186/261/149 183/249/146
f 125/260/88 128/270/91 189/271/152 186/261/149
f 128/272/91 131/255/94 192/256/155 189/273/152
f 131/255/94 134/258/97 195/259/158 192/256/155
f 134/258/97 137/248/100 198/249/161 195/259/158
f 137/248/100 140/260/103 201/261/164 198/249/161
f 140/260/103 90/274/53 145/275/108 201/261/164
f 90/276/53 82/244/45 142/247/105 145/277/108
f 146/188/109 149/191/112 202/278/165
f 149/191/112 152/194/115 202/278/165
f 152/194/115 155/197/118 202/278/165
f 155/197/118 158/200/121 202/278/165
f 158/200/121 161/203/124 202/278/165
f 161/203/124 164/206/127 202/278/165
f 164/206/127 167/209/130 202/278/165
f 167/209/130 170/212/133 202/278/165
f 170/212/133 173/215/136 202/278/165
f 173/215/136 176/218/139 202/278/165
f 176/218/139 179/221/142 202/278/165
f 179/221/142 182/224/145 202/278/165
f 182/224/145 185/227/148 202/278/165
f 185/227/148 188/230/151 202/278/165
f 188/230/151 191/233/154 202/278/165
f 191/233/154 194/236/157 202/278/165
f 194/236/157 197/239/160 202/278/165
f 197/239/160 200/242/163 202/278/165
f 200/242/163 147/189/110 202/278/165
f 147/189/110 146/188/109 202/278/165
f 87/129/50 86/128/49 23/279/166 22/280/167
f 93/135/56 87/129/50 22/280/167 26/281/168
f 96/138/59 93/135/56 26/281/168 28/282/169
f 99/141/62 96/138/59 28/282/169 30/283/170
f 102/144/65 99/141/62 30/283/170 32/284/171
f 105/147/68 102/144/65 32/284/171 34/285/172
f 108/150/71 105/147/68 34/285/172 36/286/173
f 111/153/74 108/150/71 36/286/173 38/287/174
f 114/156/77 111/153/74 38/287/174 40/288/175
f 117/159/80 114/156/77 40/288/175 42/289/176
f 120/162/83 117/159/80 42/289/176 44/290/177
f 123/165/86 120/162/83 44/290/177 46/291/178
f 126/168/89 123/165/86 46/291/178 48/292/179
f 129/171/92 126/168/89 48/292/179 50/293/180
f 132/174/95 129/171/92 50/293/180 52/294/181
f 135/177/98 132/174/95 52/294/181 54/295/182
f 138/180/101 135/177/98 54/295/182 56/296/183
f 141/183/104 138/180/101 56/296/183 58/297/184
f 89/131/52 141/183/104 58/297/184 60/298/185
f 86/128/49 89/131/52 60/298/185 23/279/166
f 203/299/186 204/300/187 205/301/187 206/302/186
f 204/300/187 207/303/188 208/304/188 205/301/187
f 207/303/188 209/305/189 210/306/189 208/304/188
f 209/305/189 211/307/190 212/308/190 210/306/189
f 211/307/190 213/309/191 214/310/191 212/308/190
f 213/311/191 215/312/192 216/313/192 214/314/191
f 215/312/192 217/315/193 218/316/193 216/313/192
f 217/315/193 219/317/194 220/318/194 218/316/193
f 219/317/194 221/319/195 222/320/195 220/318/194
f 221/319/195 223/321/196 224/322/196 222/320/195
f 223/321/196 225/323/197 226/324/197 224/322/196
f 225/323/197 203/299/186 206/302/186 226/324/197
f 204/325/1 203/326/1 227/327/1
f 207/328/1 204/325/1 227/327/1
f 209/329/1 207/328/1 227/327/1
f 211/330/1 209/329/1 227/327/1
f 213/331/1 211/330/1 227/327/1
f 215/332/1 213/331/1 227/327/1
f 217/333/1 215/332/1 227/327/1
f 219/334/1 217/333/1 227/327/1
f 221/335/1 219/334/1 227/327/1
f 223/336/1 221/335/1 227/327/1
f 225/337/1 223/336/1 227/327/1
f 203/326/1 225/337/1 227/327/1
f 228/338/198 229/339/199 230/340/1
f 231/341/200 228/338/198 230/340/1
f 232/342/201 231/341/200 230/340/1
f 233/343/202 232/342/201 230/340/1
f 234/344/202 233/343/202 230/340/1
f 235/345/203 234/344/202 230/340/1
f 236/346/203 235/345/203 230/340/1
f 237/347/204 236/346/203 230/340/1
f 238/348/204 237/347/204 230/340/1
f 239/349/205 238/348/204 230/340/1
f 240/350/205 239/349/205 230/340/1
f 241/351/206 240/350/205 230/340/1
f 242/352/207 241/351/206 230/340/1
f 243/353/208 242/352/207 230/340/1
f 244/354/208 243/353/208 230/340/1
f 245/355/209 244/354/208 230/340/1
f 246/356/209 245/355/209 230/340/1
f 247/357/210 246/356/209 230/340/1
f 248/358/210 247/357/210 230/340/1
f 229/339/199 248/358/210 230/340/1
f 249/359/1 250/360/211 251/361/211
f 252/362/1 253/363/212 254/364/212
f 255/365/1 256/366/213 257/367/213
f 258/368/214 259/369/214 235/345/203 236/346/203
f 260/370/215 261/371/215 237/347/204 238/348/204
f 262/372/216 263/373/216 239/349/205 240/350/205
f 264/374/217 265/375/217 241/351/206 242/352/207
f 266/376/218 267/377/218 243/353/208 244/354/208
f 268/378/1 269/379/219 270/380/219
f 271/381/1 272/382/220 273/383/220
f 250/360/211 249/359/1 274/384/1 275/385/1
f 253/363/212 252/362/1 276/386/1 277/387/1
f 256/366/213 255/365/1 278/388/1 279/389/1
f 259/369/214 280/390/1 281/391/1 282/392/1
f 261/371/215 283/393/1 284/394/1 285/395/1
f 263/373/216 286/396/1 287/397/1 288/398/1
f 265/375/217 289/399/1 290/400/1 291/401/1
f 267/377/218 292/402/1 293/403/1 294/404/1
f 269/379/219 268/378/1 295/405/1 296/406/1
f 272/382/220 271/381/1 297/407/1 298/408/1
f 271/381/1 273/383/220 299/409/1 300/410/1
f 249/359/1 251/361/211 301/411/1 302/412/1
f 252/362/1 254/364/212 303/413/1 304/414/1
f 255/365/1 257/367/213 305/415/1 306/416/1
f 280/390/1 258/368/214 307/417/1 308/418/1
f 283/393/1 260/370/215 309/419/1 310/420/1
f 286/396/1 262/372/216 311/421/1 312/422/1
f 289/399/1 264/374/217 313/423/1 314/424/1
f 292/402/1 266/376/218 315/425/1 316/426/1
f 268/378/1 270/380/219 317/427/1 318/428/1
f 273/383/220 272/382/220 247/357/210 248/358/210
f 251/361/211 250/360/211 229/339/199 228/338/198
f 254/364/212 253/363/212 231/341/200 232/342/201
f 257/367/213 256/366/213 233/343/202 234/344/202
f 280/390/1 259/369/214 258/368/214
f 283/393/1 261/371/215 260/370/215
f 286/396/1 263/373/216 262/372/216
f 289/399/1 265/375/217 264/374/217
f 292/402/1 267/377/218 266/376/218
f 270/380/219 269/379/219 245/355/209 246/356/209
f 228/429/221 231/430/221 319/431/221 320/432/221
f 232/433/222 233/434/222 321/435/222 322/436/222
f 234/437/223 235/438/223 323/439/223 324/440/223
f 236/441/224 237/442/224 325/443/224 326/444/224
f 238/445/225 239/446/225 327/447/225 328/448/225
f 240/449/226 241/450/226 329/451/226 330/452/226
f 242/453/227 243/454/227 331/455/227 332/456/227
f 244/457/228 245/458/228 333/459/228 334/460/228
f 246/461/229 247/462/229 335/463/229 336/464/229
f 248/465/230 229/466/230 337/467/230 338/468/230
f 229/466/231 250/469/232 339/470/233 337/467/231
f 251/471/234 228/429/235 320/432/235 340/472/236
f 231/430/237 253/473/238 341/474/239 319/431/237
f 254/475/240 232/433/241 322/436/241 342/476/242
f 233/434/243 256/477/244 343/478/245 321/435/243
f 257/479/246 234/437/247 324/440/247 344/480/248
f 235/438/249 259/481/250 345/482/251 323/439/249
f 258/483/252 236/441/253 326/444/253 346/484/254
f 237/442/255 261/485/256 347/486/257 325/443/255
f 260/487/258 238/445/259 328/448/259 348/488/260
f 239/446/261 263/489/262 349/490/263 327/447/261
f 262/491/264 240/449/265 330/452/265 350/492/266
f 241/450/267 265/493/268 351/494/269 329/451/267
f 264/495/270 242/453/271 332/456/271 352/496/272
f 243/454/273 267/497/274 353/498/275 331/455/273
f 266/499/276 244/457/277 334/460/277 354/500/278
f 245/458/279 269/501/280 355/502/281 333/459/279
f 270/503/282 246/461/283 336/464/283 356/504/284
f 247/462/285 272/505/286 357/506/287 335/463/285
f 273/507/288 248/465/289 338/468/289 358/508/290
f 250/469/232 275/509/291 359/510/291 339/470/233
f 274/511/292 249/512/292 360/513/292 361/514/292
f 253/473/238 277/515/293 362/516/293 341/474/239
f 276/517/294 252/518/294 363/519/294 364/520/294
f 256/477/244 279/521/295 365/522/295 343/478/245
f 278/523/296 255/524/296 366/525/296 367/526/296
f 259/481/250 282/527/297 368/528/297 345/482/251
f 281/529/298 280/530/298 369/531/298 370/532/298
f 261/485/256 285/533/299 371/534/299 347/486/257
f 284/535/300 283/536/300 372/537/300 373/538/300
f 263/489/262 288/539/292 374/540/292 349/490/263
f 287/541/291 286/542/291 375/543/291 376/544/291
f 265/493/268 291/545/294 377/546/294 351/494/269
f 290/547/293 289/548/293 378/549/293 379/550/293
f 267/497/274 294/551/296 380/552/296 353/498/275
f 293/553/295 292/554/295 381/555/295 382/556/295
f 269/501/280 296/557/298 383/558/298 355/502/281
f 295/559/297 268/560/297 384/561/297 385/562/297
f 272/505/286 298/563/300 386/564/300 357/506/287
f 297/565/299 271/566/299 387/567/299 388/568/299
f 271/566/301 300/569/301 389/570/301 387/567/301
f 299/571/302 273/507/288 358/508/290 390/572/302
f 249/512/303 302/573/303 391/574/303 360/513/303
f 301/575/304 251/471/234 340/472/236 392/576/304
f 252/518/305 304/577/305 393/578/305 363/519/305
f 303/579/306 254/475/240 342/476/242 394/580/306
f 255/524/307 306/581/307 395/582/307 366/525/307
f 305/583/308 257/479/246 344/480/248 396/584/308
f 280/530/309 308/585/309 397/586/309 369/531/309
f 307/587/310 258/483/252 346/484/254 398/588/310
f 283/536/302 310/589/302 399/590/302 372/537/302
f 309/591/301 260/487/258 348/488/260 400/592/301
f 286/542/304 312/593/304 401/594/304 375/543/304
f 311/595/303 262/491/264 350/492/266 402/596/303
f 289/548/306 314/597/306 403/598/306 378/549/306
f 313/599/305 264/495/270 352/496/272 404/600/305
f 292/554/308 316/601/308 405/602/308 381/555/308
f 315/603/307 266/499/276 354/500/278 406/604/307
f 268/560/310 318/605/310 407/606/310 384/561/310
f 317/607/309 270/503/282 356/504/284 408/608/309
f 409/609/311 410/610/312 411/611/312 412/612/311
f 410/610/312 413/613/313 414/614/313 411/611/312
f 413/613/313 415/615/39 416/616/39 414/614/313
f 415/615/39 417/617/314 418/618/314 416/616/39
f 417/617/314 419/619/315 420/620/315 418/618/314
f 419/619/315 421/621/316 422/622/316 420/620/315
f 421/621/316 423/623/44 424/624/44 422/622/316
f 423/623/44 425/625/317 426/626/317 424/624/44
f 425/625/317 427/627/318 428/628/318 426/626/317
f 427/627/318 429/629/319 430/630/319 428/628/318
f 429/629/319 431/631/29 432/632/29 430/630/319
f 431/631/29 433/633/320 434/634/320 432/632/29
f 433/633/320 435/635/321 436/636/321 434/634/320
f 435/635/321 437/637/322 438/638/322 436/636/321
f 437/637/322 439/639/34 440/640/34 438/638/322
f 439/639/34 409/609/311 412/612/311 440/640/34
f 410/610/1 409/609/1 441/641/1
f 413/613/1 410/610/1 441/641/1
f 415/615/1 413/613/1 441/641/1
f 417/617/1 415/615/1 441/641/1
f 419/619/1 417/617/1 441/641/1
f 421/621/1 419/619/1 441/641/1
f 423/623/1 421/621/1 441/641/1
f 425/625/1 423/623/1 441/641/1
f 427/627/1 425/625/1 441/641/1
f 429/629/1 427/627/1 441/641/1
f 431/631/1 429/629/1 441/641/1
f 433/633/1 431/631/1 441/641/1
f 435/635/1 433/633/1 441/641/1
f 437/637/1 435/635/1 441/641/1
f 439/639/1 437/637/1 441/641/1
f 409/609/1 439/639/1 441/641/1
